<svg width="8" height="18" viewBox="0 0 8 18" fill="none" xmlns="http://www.w3.org/2000/svg">
<path d="M3 1.5C3 2.32843 2.32843 3 1.5 3C0.671573 3 0 2.32843 0 1.5C0 0.671573 0.671573 0 1.5 0C2.32843 0 3 0.671573 3 1.5Z" fill="#B4B4B4"/>
<path d="M3 6.5C3 7.32843 2.32843 8 1.5 8C0.671573 8 0 7.32843 0 6.5C0 5.67157 0.671573 5 1.5 5C2.32843 5 3 5.67157 3 6.5Z" fill="#B4B4B4"/>
<path d="M3 11.5C3 12.3284 2.32843 13 1.5 13C0.671573 13 0 12.3284 0 11.5C0 10.6716 0.671573 10 1.5 10C2.32843 10 3 10.6716 3 11.5Z" fill="#B4B4B4"/>
<path d="M3 16.5C3 17.3284 2.32843 18 1.5 18C0.671573 18 0 17.3284 0 16.5C0 15.6716 0.671573 15 1.5 15C2.32843 15 3 15.6716 3 16.5Z" fill="#B4B4B4"/>
<path d="M8 1.5C8 2.32843 7.32843 3 6.5 3C5.67157 3 5 2.32843 5 1.5C5 0.671573 5.67157 0 6.5 0C7.32843 0 8 0.671573 8 1.5Z" fill="#B4B4B4"/>
<path d="M8 6.5C8 7.32843 7.32843 8 6.5 8C5.67157 8 5 7.32843 5 6.5C5 5.67157 5.67157 5 6.5 5C7.32843 5 8 5.67157 8 6.5Z" fill="#B4B4B4"/>
<path d="M8 11.5C8 12.3284 7.32843 13 6.5 13C5.67157 13 5 12.3284 5 11.5C5 10.6716 5.67157 10 6.5 10C7.32843 10 8 10.6716 8 11.5Z" fill="#B4B4B4"/>
<path d="M8 16.5C8 17.3284 7.32843 18 6.5 18C5.67157 18 5 17.3284 5 16.5C5 15.6716 5.67157 15 6.5 15C7.32843 15 8 15.6716 8 16.5Z" fill="#B4B4B4"/>
</svg>
