<svg width="416" height="138" viewBox="0 0 416 138" fill="none" xmlns="http://www.w3.org/2000/svg">
<path d="M285.182 112.242V116.622C285.182 116.622 294.337 118.861 298.585 113.592C299.079 112.966 298.618 112.044 297.828 112.044H290.912L289.595 110.101L285.182 112.242Z" fill="#4F3E33"/>
<path d="M269.11 61.92L286.762 80.3625L289.595 110.101H284.358L277.936 88.1347L256.398 69.1982L269.11 61.92Z" fill="#5D6377"/>
<path d="M223.729 61.92L241.381 80.3625L244.18 110.101H239.8L232.555 88.1347L211.016 69.1982L223.729 61.92Z" fill="#939393"/>
<path d="M244.18 110.101H239.8V112.242L244.18 110.101Z" fill="#FDA84C"/>
<path d="M239.8 111.155V116.622C239.8 116.622 248.955 118.861 253.204 113.592C253.698 112.966 253.236 112.044 252.446 112.044H245.497L244.18 110.101L239.8 111.155Z" fill="#737373"/>
<path d="M178.709 61.92L196.361 80.3625L199.16 110.101H194.747L187.535 88.1347L165.964 69.1982L178.709 61.92Z" fill="#5D6377"/>
<path d="M199.161 110.101H194.748V112.242L199.161 110.101Z" fill="#FDA84C"/>
<path d="M194.748 110.101V116.622C194.748 116.622 203.903 118.861 208.151 113.592C208.645 112.966 208.184 112.044 207.394 112.044H200.445L199.128 110.101H194.748V110.101Z" fill="black"/>
<path d="M151.671 110.101H147.291V112.242L151.671 110.101Z" fill="#FDA84C"/>
<path d="M147.291 111.155V116.622C147.291 116.622 156.446 118.861 160.695 113.592C161.189 112.966 160.728 112.044 159.937 112.044H152.988L151.671 110.101L147.291 111.155Z" fill="#4F3E33"/>
<path d="M138.577 109.074L137.795 111.277L154.213 117.105L154.995 114.901L138.577 109.074Z" fill="#C2C2C2"/>
<path d="M186.064 109.068L185.282 111.272L201.7 117.099L202.482 114.896L186.064 109.068Z" fill="#C2C2C2"/>
<path d="M231.108 109.055L230.326 111.258L246.744 117.086L247.526 114.882L231.108 109.055Z" fill="#C2C2C2"/>
<path d="M276.758 109.058L275.976 111.262L292.394 117.089L293.176 114.886L276.758 109.058Z" fill="#C2C2C2"/>
<path d="M57.6603 83.2696H16V81.1619H57.6603C58.2531 81.1619 58.7142 81.623 58.7142 82.2158C58.7142 82.7756 58.2202 83.2696 57.6603 83.2696Z" fill="#E6E6E6"/>
<path d="M85.9695 53.094H32.5522C31.9594 53.094 31.4983 52.6329 31.4983 52.0401C31.4983 51.4473 31.9594 50.9863 32.5522 50.9863H85.9695C86.5623 50.9863 87.0234 51.4473 87.0234 52.0401C87.0234 52.6329 86.5623 53.094 85.9695 53.094Z" fill="#E6E6E6"/>
<path d="M343.255 54.6872H143.186C142.594 54.6872 142.133 54.2262 142.133 53.6334C142.133 53.0406 142.594 52.5795 143.186 52.5795H343.255C343.847 52.5795 344.308 53.0406 344.308 53.6334C344.276 54.2262 343.815 54.6872 343.255 54.6872Z" fill="#E6E6E6"/>
<path d="M31.2843 38.2923H12.0185C11.4257 38.2923 10.9646 37.8312 10.9646 37.2384C10.9646 36.6456 11.4257 36.1846 12.0185 36.1846H31.2843C31.8771 36.1846 32.3381 36.6456 32.3381 37.2384C32.3381 37.8312 31.8441 38.2923 31.2843 38.2923Z" fill="#E6E6E6"/>
<path d="M70.1948 68.8031H53.4977C52.9049 68.8031 52.4438 68.342 52.4438 67.7492C52.4438 67.1564 52.9049 66.6954 53.4977 66.6954H70.1948C70.7876 66.6954 71.2486 67.1564 71.2486 67.7492C71.2486 68.3091 70.7546 68.8031 70.1948 68.8031Z" fill="#E6E6E6"/>
<path d="M170.805 71.8H159.18C159.18 72.4257 159.312 73.0515 159.542 73.5784C158.455 73.2491 157.467 72.7221 156.644 71.9647C154.536 70.0216 151.836 68.9678 148.971 68.9678H145.578C144.953 68.9678 144.426 69.4947 144.426 70.1204C144.426 70.7462 144.953 71.2731 145.578 71.2731H148.971C151.243 71.2731 153.416 72.1294 155.063 73.6443C156.874 75.3239 159.312 76.246 161.913 76.246H163.593H166.162H181.113C178.479 73.4137 174.724 71.8 170.805 71.8Z" fill="#043C40"/>
<path d="M148.872 80.3625L131.22 61.92L118.508 69.1982L121.471 71.8H111.328C111.328 74.2699 113.337 76.2459 115.774 76.2459H126.51L140.013 88.1347L147.258 110.101H151.638L148.872 80.3625Z" fill="#5D6377"/>
<path d="M58.2071 129.136H334.944C335.734 129.136 336.36 129.762 336.36 130.553C336.36 131.343 335.734 131.969 334.944 131.969H58.2071C57.4167 131.969 56.791 131.343 56.791 130.553C56.791 129.795 57.4167 129.136 58.2071 129.136Z" fill="#D2D2D2"/>
<path d="M106.849 96.7961L93.0832 110.562L93.676 110.595L92.1281 129.038L90.9755 128.939L92.3257 113.065L84.2242 127.095L83.2362 126.502L91.5683 112.11L79.3831 124.295C86.9906 131.903 99.3405 131.903 106.948 124.295C114.457 116.721 114.457 104.404 106.849 96.7961Z" fill="#C2C2C2"/>
<path d="M336.524 96.7961L322.758 110.562L323.351 110.595L321.803 129.038L320.651 128.939L322.001 113.065L313.899 127.095L312.878 126.502L321.21 112.11L309.025 124.295C316.633 131.903 328.983 131.903 336.59 124.295C344.132 116.721 344.132 104.404 336.524 96.7961Z" fill="#C2C2C2"/>
<path d="M322.758 131.804C311.067 131.804 301.516 122.286 301.516 110.562C301.516 98.871 311.034 89.3204 322.758 89.3204C334.449 89.3204 344 98.838 344 110.562C343.967 122.286 334.449 131.804 322.758 131.804ZM322.758 92.8113C312.977 92.8113 305.007 100.781 305.007 110.562C305.007 120.343 312.977 128.313 322.758 128.313C332.539 128.313 340.509 120.343 340.509 110.562C340.509 100.781 332.539 92.8113 322.758 92.8113Z" fill="#043C40"/>
<path d="M93.0502 89.3533C81.5895 89.3533 72.2365 98.4758 71.8414 109.805H64.6949C64.2668 109.805 63.9045 110.167 63.9045 110.595C63.9045 111.023 64.2668 111.386 64.6949 111.386H71.8414C71.8743 112.703 72.0719 114.02 72.3353 115.272H57.8119C57.3837 115.272 57.0215 115.634 57.0215 116.062C57.0215 116.49 57.3837 116.852 57.8119 116.852H76.419C75.6945 114.909 75.2993 112.835 75.2993 110.661C75.2993 100.88 83.2691 92.9101 93.0502 92.9101C102.831 92.9101 110.801 100.88 110.801 110.661C110.801 120.442 102.831 128.412 93.0502 128.412C86.6612 128.412 81.0955 125.02 77.9669 119.948H82.8739C83.302 119.948 83.6643 119.586 83.6643 119.158C83.6643 118.73 83.302 118.367 82.8739 118.367H74.7724H73.2904C76.3861 126.238 84.0924 131.837 93.0502 131.837C104.741 131.837 114.292 122.319 114.292 110.595C114.292 98.871 104.774 89.3533 93.0502 89.3533Z" fill="#043C40"/>
<path d="M252.38 71.8C252.38 72.3598 252.479 72.9197 252.677 73.4137C251.788 73.0844 250.964 72.5904 250.273 71.9317C248.165 69.9887 245.464 68.9348 242.599 68.9348H239.207C238.581 68.9348 238.054 69.4617 238.054 70.0875C238.054 70.7132 238.581 71.2401 239.207 71.2401H242.599C244.872 71.2401 247.045 72.0964 248.692 73.6113C250.503 75.2909 252.94 76.213 255.542 76.213H256.793H259.79H274.314V71.7671H252.38V71.8Z" fill="#043C40"/>
<path d="M311.1 90.7035L308.037 80.8895H266.838L263.38 71.4048L261.206 72.1952L264.368 80.8895H221.292L218.591 73.4466L216.417 74.237L218.854 80.8895H176.239L173.539 73.4466L171.365 74.237L173.802 80.8895H128.881L126.181 73.4466L124.007 74.237L126.444 80.8895H113.732C110.604 80.8895 107.673 82.5691 106.125 85.3025L103.655 89.6826C100.46 88.0689 96.8705 87.1797 93.1161 87.1797C85.6732 87.1797 78.8561 90.6047 74.3772 96.5656C75.6945 97.5536 77.5388 97.4219 78.7244 96.2692C82.5117 92.4161 87.6163 90.2754 93.1161 90.2754C96.3435 90.2754 99.4063 91.0329 102.14 92.3502L91.1401 111.682H276.191L307.807 87.6408L309.19 92.0538C308.334 92.7125 307.543 93.437 306.753 94.2274C301.549 99.5625 299.277 106.841 300.43 114.218C302.043 113.954 303.262 112.538 303.229 110.891C303.097 105.49 305.139 100.32 308.959 96.368C309.354 95.9399 309.783 95.5447 310.244 95.1824C312.582 101.341 316.468 106.775 321.573 110.957L322.1 111.385L323.582 109.607L323.055 109.179C318.082 105.062 314.327 99.7272 312.187 93.7005C317.028 90.4072 323.055 89.3862 328.752 90.9011C330.333 91.3293 332.012 90.506 332.638 88.991C325.393 85.9941 317.456 86.7187 311.1 90.7035ZM95.0592 109.41L104.083 93.5358C106.816 95.3142 109.122 97.7183 110.768 100.682C111.559 102.131 113.337 102.724 114.852 102.131C113.008 97.356 109.714 93.4699 105.631 90.8353L108.101 86.4881C109.253 84.4792 111.394 83.2277 113.699 83.2277H127.268L136.785 109.41H95.0592ZM129.738 83.2277H171.991L138.86 108.29L129.738 83.2277ZM141.231 109.41L174.889 83.9193L184.143 109.41H141.231ZM177.095 83.2277H217.175L186.185 108.224L177.095 83.2277ZM188.457 109.41L219.941 83.9852L229.195 109.41H188.457ZM222.115 83.2277H262.82L231.204 108.257L222.115 83.2277ZM233.51 109.41L265.521 84.0511L274.742 109.41H233.51ZM276.817 108.29L267.694 83.2277H306.358L307.016 85.3355L276.817 108.29Z" fill="#0078D4"/>
<path d="M78.1975 114.053C77.3412 114.053 76.6497 113.362 76.6497 112.505V108.619C76.6497 107.763 77.3412 107.071 78.1975 107.071C79.0538 107.071 79.7454 107.763 79.7454 108.619V112.505C79.7454 113.362 79.0538 114.053 78.1975 114.053Z" fill="#DF6C47"/>
<path d="M330.497 123.241C329.905 122.649 329.905 121.661 330.497 121.068L333.231 118.334C333.824 117.742 334.812 117.742 335.404 118.334C335.997 118.927 335.997 119.915 335.404 120.508L332.671 123.241C332.078 123.834 331.09 123.834 330.497 123.241Z" fill="#DF6C47"/>
<path d="M216.911 71.8H205.286C205.286 72.3928 205.418 72.9527 205.615 73.4796C204.627 73.1503 203.771 72.6233 203.014 71.9647C200.906 70.0216 198.205 68.9678 195.34 68.9678H191.948C191.322 68.9678 190.795 69.4947 190.795 70.1204C190.795 70.7462 191.322 71.2731 191.948 71.2731H195.34C197.613 71.2731 199.786 72.1294 201.433 73.6443C203.244 75.3239 205.681 76.246 208.283 76.246H209.699H212.531H227.219C224.552 73.4137 220.83 71.8 216.911 71.8Z" fill="#043C40"/>
<path d="M111.328 71.8H109.253V79.3417H111.328V71.8Z" fill="#B2B2B2"/>
<path d="M109.253 73.1503H107.211V79.0123H109.253V73.1503Z" fill="#DF6C47"/>
<path d="M282.778 111.254C282.843 110.892 282.876 110.529 282.876 110.167C282.876 106.511 279.912 103.547 276.257 103.547C273.787 103.547 271.646 104.898 270.526 106.874L260.218 103.218L259.428 105.392L269.736 109.047C269.67 109.41 269.637 109.772 269.637 110.134C269.637 113.79 272.601 116.754 276.257 116.754C278.727 116.754 280.867 115.403 281.987 113.427L282.778 111.254Z" fill="#C2C2C2"/>
<path d="M159.18 116.293L154.997 117.84L150.518 118.137L150.024 115.7L154.207 114.152L158.686 113.856L159.18 116.293Z" fill="#939393"/>
<path d="M138.169 103.547C135.699 103.547 133.558 104.898 132.438 106.874L122.13 103.218L121.34 105.392L131.648 109.047C131.582 109.41 131.549 109.772 131.549 110.134C131.549 113.79 134.513 116.754 138.169 116.754C141.824 116.754 144.788 113.79 144.788 110.134C144.788 106.479 141.824 103.547 138.169 103.547Z" fill="#C2C2C2"/>
<path d="M140.079 110.167C140.079 111.221 139.222 112.077 138.168 112.077C137.115 112.077 136.258 111.221 136.258 110.167C136.258 109.113 137.115 108.257 138.168 108.257C139.222 108.257 140.079 109.113 140.079 110.167Z" fill="#F3F3F3"/>
<path d="M206.669 116.293L202.487 117.84L198.008 118.137L197.514 115.7L201.696 114.152L206.142 113.856L206.669 116.293Z" fill="#939393"/>
<path d="M185.658 103.547C183.188 103.547 181.047 104.898 179.928 106.874L169.62 103.218L168.829 105.392L179.137 109.047C179.071 109.41 179.038 109.772 179.038 110.134C179.038 113.79 182.002 116.754 185.658 116.754C189.313 116.754 192.277 113.79 192.277 110.134C192.277 106.479 189.313 103.547 185.658 103.547Z" fill="#C2C2C2"/>
<path d="M187.568 110.167C187.568 111.221 186.712 112.077 185.658 112.077C184.604 112.077 183.748 111.221 183.748 110.167C183.748 109.113 184.604 108.257 185.658 108.257C186.712 108.257 187.568 109.113 187.568 110.167Z" fill="#F3F3F3"/>
<path d="M251.722 116.293L247.506 117.84L243.06 118.137L242.533 115.7L246.716 114.152L251.195 113.856L251.722 116.293Z" fill="#939393"/>
<path d="M230.677 103.547C228.207 103.547 226.067 104.898 224.947 106.874L214.639 103.218L213.849 105.392L224.157 109.047C224.091 109.41 224.058 109.772 224.058 110.134C224.058 113.79 227.022 116.754 230.677 116.754C234.333 116.754 237.297 113.79 237.297 110.134C237.297 106.479 234.333 103.547 230.677 103.547Z" fill="#C2C2C2"/>
<path d="M232.588 110.167C232.588 111.221 231.731 112.077 230.677 112.077C229.624 112.077 228.767 111.221 228.767 110.167C228.767 109.113 229.624 108.257 230.677 108.257C231.731 108.257 232.588 109.113 232.588 110.167Z" fill="#F3F3F3"/>
<path d="M278.167 110.167C278.167 111.221 277.311 112.077 276.257 112.077C275.203 112.077 274.347 111.221 274.347 110.167C274.347 109.113 275.203 108.257 276.257 108.257C277.311 108.257 278.167 109.113 278.167 110.167Z" fill="#F3F3F3"/>
<path d="M95.9812 110.562C95.9812 112.176 94.6639 113.493 93.0502 113.493C91.4365 113.493 90.1191 112.176 90.1191 110.562C90.1191 108.948 91.4365 107.631 93.0502 107.631C94.6639 107.631 95.9812 108.948 95.9812 110.562Z" fill="#B2B2B2"/>
<path d="M325.689 110.562C325.689 112.176 324.372 113.493 322.758 113.493C321.144 113.493 319.827 112.176 319.827 110.562C319.827 108.948 321.144 107.631 322.758 107.631C324.372 107.631 325.689 108.948 325.689 110.562Z" fill="#043C40"/>
<path d="M297.268 116.293L293.085 117.84L288.607 118.137L288.113 115.7L292.295 114.152L296.741 113.856L297.268 116.293Z" fill="#939393"/>
<path d="M153.186 67.0247L147.752 64.3901L144.755 62.3482L141.231 64.7852L145.381 68.5396C146.006 69.0995 146.764 69.4288 147.587 69.5605L150.189 69.9228L149.366 70.8449C148.938 71.3389 149.003 72.0964 149.497 72.5245L149.53 72.5574L150.354 72.0634L150.222 72.3269C149.958 72.8209 150.09 73.4137 150.584 73.7101L150.749 73.8089L151.506 72.7221C151.506 73.1502 151.737 73.5454 152.132 73.743L154.24 71.5036L154.371 68.9677C154.339 68.1444 153.91 67.387 153.186 67.0247Z" fill="#DB9C94"/>
<path d="M247.967 22.3016L246.683 20.2927C246.485 19.9963 246.353 19.634 246.353 19.2718C246.222 17.1311 245.003 9.26013 234.992 9.6224C230.282 9.78706 226.495 13.9366 226.001 18.6131C225.671 21.6759 226.692 24.5081 228.537 26.5829L225.507 30.008L231.599 34.2563L233.641 32.0827C234.893 30.7654 236.605 30.008 238.417 30.008H239.866H242.336C243.818 30.008 245.069 28.9541 245.333 27.538C245.53 26.4841 245.761 25.1997 245.958 23.9153L246.88 24.0471C247.901 24.2447 248.56 23.1249 247.967 22.3016Z" fill="#72594B"/>
<path d="M244.213 19.8646C244.213 20.3586 243.818 20.7538 243.324 20.7538C242.83 20.7538 242.435 20.3586 242.435 19.8646C242.435 19.3706 242.83 18.9754 243.324 18.9754C243.818 18.9425 244.213 19.3706 244.213 19.8646Z" fill="black"/>
<path d="M245.86 24.9363L242.336 24.4094C242.336 24.4094 242.797 26.55 245.497 27.0111C245.629 26.3524 245.86 24.9363 245.86 24.9363Z" fill="#4F3E33"/>
<path d="M240.162 18.4484C240.096 18.4484 239.997 18.4155 239.932 18.3826C239.767 18.2508 239.701 18.0203 239.833 17.8227C239.833 17.7898 241.479 15.4845 244.378 16.9335C244.575 17.0323 244.641 17.2628 244.542 17.4604C244.443 17.658 244.213 17.7239 244.015 17.6251C241.71 16.4725 240.491 18.185 240.459 18.2508C240.426 18.3826 240.294 18.4484 240.162 18.4484Z" fill="black"/>
<path d="M124.732 19.6341L124.073 19.0413C123.448 18.5144 123.052 17.7898 122.855 16.9994C121.702 12.4217 117.454 9.06258 112.448 9.26018C107.409 9.45777 103.194 13.3768 102.634 18.3826C102.173 22.4663 104.116 26.1548 107.244 28.1967L108.99 31.5558C109.55 32.6097 109.583 33.8941 109.122 34.9809L108.167 37.2862L118.508 36.5617L116.63 32.478C116.136 31.4241 116.729 30.2056 117.849 29.9421C117.849 29.9421 119.463 29.5799 119.627 29.5469C121.669 29.4481 123.283 27.7356 123.25 25.6608C123.25 24.7058 123.217 23.6848 123.217 22.6969C123.217 22.2687 123.546 21.9065 123.974 21.9065C125.127 21.9065 125.621 20.4245 124.732 19.6341Z" fill="#DB9C94"/>
<path d="M199.193 25.9243L198.337 25.0351C198.008 24.7058 197.876 24.2777 197.876 23.8166C197.876 23.6849 197.876 23.5861 197.876 23.4873C197.876 17.5593 192.903 12.784 186.909 13.1134C181.673 13.3768 177.359 17.6911 177.095 22.9274C176.931 25.8584 178.017 28.559 179.829 30.5349L174.362 34.8821L182.529 38.6035L185.361 36.1994C187.074 34.7174 189.313 33.96 191.586 34.0588L192.936 34.1246L192.804 34.0588C193.134 34.0917 193.43 34.0917 193.759 34.0917C195.406 34.1905 196.855 32.972 197.086 31.3253C197.217 30.3703 197.349 29.2835 197.481 28.1967H198.205C199.424 28.1967 200.017 26.7806 199.193 25.9243Z" fill="#D8B094"/>
<path d="M226.297 25.6608L227.714 26.2536C230.809 27.5709 233.378 29.8763 235.058 32.7744L233.411 34.8821L232.785 39.9538L233.839 44.0045C234.333 45.8817 233.773 47.8577 232.39 49.208L231.073 50.5253L224.782 28.2955L226.297 25.6608Z" fill="#D2D2D2"/>
<path d="M307.181 83.2278C306.654 83.2278 306.193 82.8655 306.061 82.3715L304.744 77.201C304.283 75.4226 304.678 73.5784 305.798 72.1293C306.917 70.6803 308.63 69.8569 310.441 69.8569H315.875C318.674 69.8569 320.98 72.1293 320.98 74.9616C320.98 77.7609 318.707 80.0662 315.875 80.0662H314.821C314.196 80.0662 313.669 79.5392 313.669 78.9135C313.669 78.2878 314.196 77.7609 314.821 77.7609H315.875C317.39 77.7609 318.642 76.5094 318.642 74.9945C318.642 73.4796 317.39 72.2281 315.875 72.2281H310.441C309.321 72.2281 308.301 72.7221 307.642 73.6113C306.95 74.5005 306.72 75.6202 307.016 76.6741L308.333 81.8116C308.498 82.4374 308.136 83.0631 307.51 83.2278C307.378 83.1948 307.28 83.2278 307.181 83.2278Z" fill="#043C40"/>
<path d="M311.89 77.7938C310.244 77.9585 308.959 79.3087 308.959 80.9883C308.959 82.6679 310.244 84.0511 311.89 84.1828V77.7938Z" fill="#B2B2B2"/>
<path d="M312.845 35.3432C313.01 32.3133 309.321 26.8794 303.328 26.5171C298.585 26.2207 294.337 29.1517 292.954 33.6965C292.394 35.5408 292.394 37.385 292.822 39.0975L286.828 40.349L290.154 47.7589L295.292 46.6721C296.972 46.3099 298.717 46.2769 300.397 46.6063L303.064 47.1002L306.061 47.726C307.806 48.0882 309.519 47.1332 310.145 45.4865L311.166 42.8519C311.297 42.5555 311.627 42.3579 311.923 42.4238L313.01 42.6543C313.537 42.7531 314.031 42.3579 314.031 41.798C314.064 41.4687 312.648 38.8341 312.845 35.3432Z" fill="#CE9C5F"/>
<path d="M309.947 37.6814C310.276 37.6814 310.606 37.879 310.77 38.1425C310.968 37.9778 311.1 37.7143 311.1 37.4179C311.1 36.891 310.672 36.4629 310.145 36.4629C309.618 36.4629 309.19 36.891 309.19 37.4179C309.19 37.6155 309.256 37.7802 309.354 37.9449C309.519 37.7473 309.717 37.6814 309.947 37.6814Z" fill="black"/>
<path d="M308.136 35.4419C307.971 35.4419 307.807 35.3431 307.774 35.1785C307.708 34.9809 307.84 34.7503 308.037 34.6845C309.355 34.2893 310.705 34.1575 312.055 34.3551C312.286 34.3881 312.417 34.5857 312.384 34.7833C312.351 35.0138 312.154 35.1455 311.956 35.1126C310.738 34.9479 309.486 35.0467 308.301 35.409C308.202 35.4419 308.169 35.4419 308.136 35.4419Z" fill="#72594B"/>
<path d="M254.323 66.6624C254.323 70.0875 256.365 73.1832 259.494 74.5664L278.068 82.602L262.886 95.0507L267.431 98.9368L288.178 87.1138C291.834 85.0391 292.328 79.9674 289.133 77.201L276.915 66.6954H254.323V66.6624Z" fill="#282C3B"/>
<path d="M278.068 82.5691L282.975 79.4404C282.975 79.4404 277.87 78.6171 278.068 82.5691Z" fill="black"/>
<path d="M267.431 98.9039L265.586 100.221L261.569 97.4549L263.973 95.9399L267.431 98.9039Z" fill="#CE9C5F"/>
<path d="M261.569 97.4548L257.748 99.6284C257.748 99.6284 260.317 108.685 267.002 109.805C267.793 109.936 268.353 109.08 267.958 108.389L264.532 102.329L265.586 100.221L261.569 97.4548Z" fill="#4F3E33"/>
<path d="M319.037 71.1084L317.16 67.2552C317.028 66.9918 316.764 66.8271 316.435 66.8271H315.711C314.393 66.8271 309.98 67.2882 308.498 67.4199C308.169 67.4528 307.872 67.387 307.576 67.2552L305.139 66.0696L302.471 67.9139L303.361 70.1863L307.938 71.0096C308.202 71.0425 308.498 71.0755 308.762 71.0425L311.89 70.6803L313.241 71.6024L312.747 72.5245C312.549 72.8539 312.648 73.282 312.944 73.5125C313.175 73.6772 313.471 73.6443 313.636 73.4137L313.866 73.0515C313.899 73.0515 313.899 73.0515 313.932 73.0515L315.579 72.6892C315.546 72.788 315.513 72.9197 315.513 73.0185C315.48 73.3808 315.842 73.6442 316.172 73.4796L318.74 72.0964C319.07 71.8329 319.201 71.4377 319.037 71.1084ZM314.69 70.2851L314.854 71.0425C314.821 70.9437 314.755 70.8779 314.69 70.812L314.097 70.3509L314.69 70.2851ZM314.92 71.306C314.92 71.2731 314.92 71.2731 314.92 71.2401V71.306ZM316.501 71.306L316.303 70.0875H316.435L316.929 71.0755C316.764 71.1413 316.633 71.2401 316.501 71.306Z" fill="#CE9C5F"/>
<path d="M303.921 26.0231C303.657 25.9572 303.394 25.9243 303.097 25.8913C303.097 25.8913 303.064 25.8913 303.031 25.8913C302.834 25.8584 302.636 25.8584 302.439 25.8255C301.78 25.7596 300.66 25.6937 299.376 25.6608C291.472 25.4303 278.529 27.9003 276.817 21.2148C275.104 24.4093 275.269 28.0649 281.559 29.1188C276.29 31.8851 273.655 36.7922 278.2 40.9417C280.044 36.6275 283.37 35.8371 285.873 37.6484C288.343 39.4268 289.134 39.6903 293.184 40.1843C296.478 40.5795 297.96 38.6364 298.585 36.4958L298.882 34.9809C299.079 34.0258 300.001 33.4001 300.957 33.5977C302.076 33.8282 302.801 34.915 302.57 36.0676L303.492 35.8042C304.151 35.6395 304.645 35.1126 304.744 34.4539L305.402 31.1606C305.567 30.3702 306.325 29.8433 307.148 30.008L308.235 30.2385C308.762 30.3373 309.322 30.2385 309.75 29.9421L310.507 29.4481C310.507 29.4152 308.663 26.9781 303.921 26.0231Z" fill="#72594B"/>
<path d="M301.417 37.5826L300.891 37.4838C300.001 37.2862 299.409 36.4299 299.606 35.5407C299.738 34.9479 300.298 34.5856 300.891 34.6844C301.483 34.8162 301.846 35.376 301.747 35.9688L301.417 37.5826Z" fill="#BA8C57"/>
<path d="M208.283 66.6625C208.283 70.0875 210.325 73.1832 213.453 74.5664L232.028 82.6021L215.528 93.8981L221.39 98.9369L242.138 87.1139C245.794 85.0391 246.288 79.9674 243.093 77.2011L226.725 63.3033L208.25 62.8093V66.6625H208.283Z" fill="#B2B2B2"/>
<path d="M209.172 70.4497C209.172 70.4497 221.95 72.6892 227.911 64.0278C223.004 62.4799 208.316 64.0278 208.316 64.0278C208.316 64.0278 207.525 68.1773 209.172 70.4497Z" fill="#939393"/>
<path d="M232.028 82.5691L236.935 79.4404C236.935 79.4404 231.83 78.6171 232.028 82.5691Z" fill="#939393"/>
<path d="M221.39 98.9039L219.546 100.221L215.528 97.4549L217.932 95.9399L221.39 98.9039Z" fill="#EB4F5D"/>
<path d="M215.528 97.4548L211.708 99.6284C211.708 99.6284 214.277 108.685 220.962 109.805C221.753 109.936 222.312 109.08 221.917 108.389L218.492 102.329L219.546 100.221L215.528 97.4548Z" fill="#737373"/>
<path d="M163.758 66.6624C163.758 70.0875 165.799 73.1832 168.928 74.5664L187.502 82.602L172.32 95.0507L176.865 98.9368L197.613 87.1138C201.268 85.0391 201.762 79.9674 198.568 77.201L186.35 66.6954H163.758V66.6624Z" fill="#282C3B"/>
<path d="M187.502 82.5691L192.409 79.4404C192.442 79.4404 187.338 78.6171 187.502 82.5691Z" fill="#043C40"/>
<path d="M176.865 98.9039L175.053 100.221L171.003 97.4549L173.407 95.9399L176.865 98.9039Z" fill="white"/>
<path d="M172.946 95.5776L167.183 99.6284C167.183 99.6284 169.784 108.817 176.601 109.805C177.326 109.904 177.919 109.179 177.622 108.487C176.964 106.94 176.107 104.733 175.613 103.35C175.317 102.559 175.383 101.67 175.778 100.946L176.865 98.9368L172.946 95.5776Z" fill="black"/>
<path d="M115.972 66.6624C115.972 70.0875 118.014 73.1832 121.142 74.5664L139.716 82.602L124.534 95.0507L129.079 98.9368L149.827 87.1139C153.482 85.0391 153.976 79.9674 150.782 77.201L132.965 63.9619L115.972 66.6624Z" fill="#282C3B"/>
<path d="M139.716 82.5691L144.623 79.4404C144.656 79.4404 139.552 78.6171 139.716 82.5691Z" fill="#043C40"/>
<path d="M129.079 98.9039L127.268 100.221L123.217 97.4549L125.621 95.9399L129.079 98.9039Z" fill="#BB9167"/>
<path d="M123.217 97.4548L119.397 99.6284C119.397 99.6284 121.965 108.685 128.651 109.805C129.441 109.936 130.001 109.08 129.606 108.389L126.181 102.329L127.235 100.221L123.217 97.4548Z" fill="#4F3E33"/>
<path d="M261.206 108.718L258.242 105.359L256.365 101.308L258.44 99.9578L261.404 103.284L263.281 107.335L261.206 108.718Z" fill="#939393"/>
<path d="M123.151 108.718L120.154 105.359L118.277 101.308L120.352 99.9578L123.316 103.284L125.193 107.335L123.151 108.718Z" fill="#939393"/>
<path d="M170.608 108.718L167.644 105.359L165.766 101.308L167.841 99.9578L170.805 103.284L172.682 107.335L170.608 108.718Z" fill="#939393"/>
<path d="M215.66 108.718L212.696 105.359L210.786 101.308L212.861 99.9578L215.825 103.284L217.735 107.335L215.66 108.718Z" fill="#939393"/>
<path d="M310.968 43.5764L308.399 41.8638C308.399 41.8638 307.938 44.3667 310.342 45.0254C310.606 44.5973 310.902 43.8069 310.968 43.5764Z" fill="#8C6943"/>
<path d="M231.863 33.6965C230.414 29.1846 225.079 27.3075 221.094 29.8104C217.603 32.0169 213.486 35.8042 210.819 42.3249C207.229 51.0851 207.558 58.9561 205.78 65.7733C213.717 67.6504 228.438 64.9829 229.393 63.0398C229.624 58.9232 231.797 45.3548 232.62 40.9747C232.917 39.328 232.884 37.6484 232.489 36.0347C232.324 35.3102 232.126 34.5198 231.863 33.6965Z" fill="#B2B2B2"/>
<path d="M251.326 72.0964L250.108 69.4289V68.9349C250.108 68.3421 249.779 67.7822 249.285 67.4529L243.126 63.7644L241.809 62.48L238.614 65.0817L240.524 67.7163C241.315 68.8031 242.5 69.4618 243.818 69.5935L245.827 69.7582L244.476 71.4378C244.18 71.833 244.18 72.3928 244.542 72.7551L244.773 72.9856L247.638 71.339L246.749 72.3599C246.419 72.7222 246.354 73.2491 246.551 73.7101L246.716 74.0395L249.087 73.0515L248.758 73.5126C248.395 74.0066 248.494 74.6652 248.955 75.0604L249.219 75.258L251.228 73.0515C251.392 72.788 251.458 72.4258 251.326 72.0964Z" fill="#72594B"/>
<path d="M201.63 68.8031L201.565 68.1444C201.532 67.6504 201.202 67.1894 200.741 66.9918L194.682 64.1595L193.265 63.0398L190.236 64.5547L193.364 67.9139C194.22 68.836 195.406 69.33 196.658 69.2641L197.744 69.1983L198.008 70.7132L197.283 71.1413C196.789 71.4707 196.526 72.0634 196.625 72.6562L196.658 72.8538L199.358 71.7341L199.852 69.6923L200.116 71.3719L199.226 72.1952C198.831 72.5904 198.732 73.1832 199.029 73.6772L199.16 73.9077L201.103 72.5574L201.235 73.4137C201.334 74.0065 201.894 74.4346 202.52 74.3029L202.717 74.27V69.5605L201.63 68.8031Z" fill="#D8B094"/>
<path d="M194.649 24.9363C194.649 25.3974 195.011 25.7596 195.472 25.7596C195.933 25.7596 196.295 25.3974 196.295 24.9363C196.295 24.4752 195.933 24.113 195.472 24.113C195.011 24.113 194.649 24.4752 194.649 24.9363Z" fill="black"/>
<path d="M197.316 28.1307L196.658 28.0649C195.702 27.999 194.747 28.4601 194.286 29.3163L193.957 29.8762L198.107 30.2384L198.172 29.0858C198.205 28.6247 197.843 28.1966 197.316 28.1307Z" fill="#CE9C5F"/>
<path d="M190.104 17.4276L193.957 14.5295L190.367 12.8499C187.502 11.4996 184.11 11.829 181.541 13.7391C177.293 16.8677 175.613 22.5322 177.721 27.3734C178.281 28.6907 179.006 29.8433 179.862 30.5349C182.76 30.0409 184.604 28.0979 185.46 26.9452C184.67 26.4842 184.11 25.6938 183.978 24.7387L183.913 24.2447C183.781 23.3555 184.407 22.5322 185.296 22.4005C186.218 22.2687 187.074 22.9274 187.173 23.8495L187.403 25.9572L189.412 25.7596L188.984 21.9723L191.619 19.6012L190.104 17.4276Z" fill="#1AA939"/>
<path d="M193.233 23.7506C193.134 23.7506 193.035 23.7177 192.936 23.6189C192.772 23.4542 192.804 23.2237 192.936 23.059C193.628 22.4004 195.274 21.4124 196.756 22.4333C196.921 22.565 196.987 22.7956 196.855 22.9932C196.723 23.1578 196.493 23.2237 196.295 23.092C194.978 22.2028 193.496 23.6189 193.463 23.6518C193.43 23.7177 193.331 23.7506 193.233 23.7506Z" fill="#CE9C5F"/>
<path d="M146.468 61.5907L130.1 50.9863L129.145 49.8336C126.049 43.1153 122.789 38.7352 119.133 35.3101C119.166 34.5527 119.199 33.433 119.199 31.8851C112.448 30.0409 107.475 31.2264 107.475 31.2264L107.541 34.7173C105.993 36.4299 105.367 38.8669 106.059 41.2052C107.771 47.1002 109.945 55.7945 109.122 60.2734C107.804 67.4857 104.544 70.3509 104.544 70.3509C104.544 70.3509 122.756 77.8267 134.381 64.0607C134.25 63.6655 134.151 63.3032 134.019 62.941L141.561 67.7163L146.468 61.5907Z" fill="#0078D4"/>
<path d="M195.307 63.3033L183.748 52.5671L183.616 51.8755C184.176 47.4625 185.427 43.9387 185.658 43.2471C186.646 40.5466 183.484 34.2234 180.685 33.433C175.811 32.0498 170.607 34.1246 168.072 38.4718C163.856 45.6841 161.189 53.6868 160.234 61.953L159.213 70.845C159.213 70.845 173.967 74.8957 186.382 66.6295C185.46 65.3781 184.802 63.9949 184.341 62.5458L192.442 67.3211L195.307 63.3033Z" fill="#0078D4"/>
<path d="M180.059 60.0758C177.952 58.8244 176.437 56.7825 175.844 54.3784L174.494 48.6481L173.539 50.9534C172.123 54.3455 173.539 58.2645 176.832 59.9441L184.868 64.0937L184.44 62.6775L180.059 60.0758Z" fill="#022E32"/>
<path d="M183.221 53.094L178.479 52.1061C178.479 52.1061 181.508 49.6031 183.221 53.094Z" fill="#022E32"/>
<path d="M125.522 57.54L114.259 44.9925L115.478 48.0553C118.672 56.1239 125.621 62.0847 134.085 63.9949L134.414 64.0937L133.887 62.8751L125.522 57.54Z" fill="#022E32"/>
<path d="M119.429 18.6461C119.429 19.1071 119.825 19.5023 120.286 19.5023C120.747 19.5023 121.142 19.1071 121.142 18.6461C121.142 18.185 120.747 17.7898 120.286 17.7898C119.792 17.7898 119.429 18.185 119.429 18.6461Z" fill="black"/>
<path d="M119.229 31.4594V31.4594C117.851 30.9332 116.574 30.1255 115.155 29.7202C113.27 29.1813 111.145 29.4291 109.447 30.4635C107.28 31.8142 89.2519 30.8384 61.3225 26.3524C56.7462 25.6173 52.3114 24.1536 48.1643 22.0839V22.0839L44.0081 23.2375L45.7028 27.0036V27.0036C51.7437 28.6064 57.9376 29.6627 64.163 30.2147C98.2017 33.2326 106.484 35.1953 108.155 34.1957L110.375 32.8725C112.352 31.7189 114.894 31.5832 116.992 32.5671L119.229 33.7895V31.4594Z" fill="#DF6C47"/>
<path d="M121.142 24.0471L120.385 24.8374L123.184 25.0021L122.92 24.3764C122.624 23.6848 121.702 23.4872 121.142 24.0471Z" fill="#F3F3F3"/>
<path d="M114.292 18.5473C114.226 17.5593 113.732 16.6701 112.975 16.0773L111.624 15.0564L112.184 14.2989C113.139 12.9816 112.909 11.1044 111.624 10.0835L110.834 9.45774C110.834 9.45774 108.693 7.74522 106.651 8.14042C105.104 8.46975 103.424 8.43681 102.206 8.33801C102.206 7.15242 101.646 4.81418 97.5291 5.01178C99.2745 6.3291 99.8344 6.79016 100.493 8.14042C100.493 8.14042 101.02 10.3799 103.885 10.5775C101.975 12.5534 98.7805 24.574 107.343 28.3942C110.241 26.6159 111.295 23.5202 111.591 22.4663C110.274 22.4663 109.187 21.4783 109.121 20.161L109.089 19.2389C109.056 18.3497 109.714 17.5922 110.603 17.5593C111.493 17.4934 112.25 18.185 112.316 19.0742L112.481 22.0382L114.523 21.9064L114.292 18.5473Z" fill="#D2D2D2"/>
<path d="M117.915 17.5923C117.882 17.5923 117.882 17.5923 117.849 17.5923C117.684 17.5593 117.552 17.3947 117.585 17.1971C117.585 17.1641 117.816 16.2091 118.639 15.6821C119.166 15.3528 119.825 15.254 120.615 15.4187C120.78 15.4516 120.912 15.6163 120.879 15.8139C120.846 15.9785 120.648 16.1103 120.484 16.0773C119.891 15.9456 119.397 16.0115 119.002 16.242C118.409 16.6043 118.244 17.3288 118.244 17.3288C118.211 17.4605 118.079 17.5923 117.915 17.5923Z" fill="#D2D2D2"/>
<path d="M186.942 36.7263C182.892 31.7863 177.655 30.2714 177.655 30.2714L174.395 34.882L184.9 39.7561L186.942 36.7263Z" fill="#043C40"/>
<path d="M185.658 38.6035C185.658 38.6035 186.646 40.0526 186.646 41.6663C183.188 45.6512 174.033 41.6663 170.41 46.9026H166.03L166.787 42.2262C166.787 42.2262 171.431 39.6903 177.095 40.7771C186.942 42.6872 185.23 39.1963 185.23 39.1963L185.658 38.6035Z" fill="#46CF23"/>
<path d="M185.263 39.1963C185.263 39.1963 182.398 35.9359 179.763 34.9808C182.957 35.5407 185.658 38.5705 185.658 38.5705L185.263 39.1963Z" fill="#022E32"/>
<path d="M241.512 10.6104C240.195 6.59255 234.3 6.65842 233.18 9.55652C229.722 7.11948 223.202 11.8289 226.034 16.3407C225.112 16.7689 224.552 17.4275 224.255 18.1191C223.63 17.7239 222.806 17.4934 221.884 17.4934C219.941 17.4934 218.393 18.5472 218.393 19.8316C218.393 20.8526 219.414 21.7417 220.797 22.0381C219.842 22.8615 219.381 23.9812 220.106 24.9363C220.995 26.0889 222.214 25.9901 223.202 25.562C223.333 25.8913 223.531 26.1877 223.827 26.4841C225.342 27.9332 229.492 27.538 229.986 25.1668C231.995 25.2985 234.168 24.08 234.86 22.1369C233.674 21.9723 232.752 20.8855 232.884 19.667L232.983 18.4155C233.081 17.4604 233.872 16.7689 234.827 16.8347C235.815 16.9006 236.539 17.7898 236.408 18.7448V18.8436C237.527 18.5802 238.878 17.8227 239.602 15.6821C242.039 16.4725 244.542 15.2869 244.937 13.5085C245.267 11.763 243.093 10.0176 241.512 10.6104Z" fill="black"/>
<path d="M294.073 60.01L295.127 46.705C295.292 44.8278 294.765 42.9177 293.579 41.3369C291.735 38.8999 288.672 37.8131 285.708 38.4059C272.996 40.9418 255.18 56.0909 254.323 66.6624C262.293 71.8 276.718 77.7938 276.718 77.7938L280.637 68.342C281.262 66.7942 282.119 65.3451 283.14 64.0278L286.466 59.7794V60.6357C286.499 63.0398 287.717 65.2793 289.726 66.5966L300.034 73.4796C302.471 72.0964 304.25 69.7582 304.875 67.0577L305.106 66.0038L294.073 60.01Z" fill="#0078D4"/>
<path d="M286.499 59.3843L286.268 46.5404C286.268 46.5404 281.888 54.0821 284.358 62.5129C284.753 61.9201 286.499 59.3843 286.499 59.3843Z" fill="#043C40"/>
<path d="M221.39 39.4268V52.5012C221.39 55.1359 222.806 57.5729 225.079 58.8573L239.8 67.354L242.533 62.447L229.986 52.2707L230.48 39.5915C230.579 36.9239 228.405 34.7503 225.738 34.8491C223.3 34.9809 221.39 36.9898 221.39 39.4268Z" fill="#B2B2B2"/>
<path d="M229.986 52.3036L230.48 39.6244C230.513 38.9986 230.414 38.4058 230.183 37.846C231.106 38.307 231.962 38.9657 232.653 39.822L232.752 39.9537C232.884 38.6364 232.785 37.319 232.489 36.0347C232.225 34.9808 231.896 33.6964 231.402 32.445C230.019 28.8223 225.737 27.2086 222.345 29.0858C218.624 31.1276 213.783 35.0137 210.786 42.3578C207.69 49.8665 207.493 56.7166 206.406 62.8092C209.995 59.6147 212.696 55.531 214.211 50.9204C215.627 46.6062 218.097 42.7201 221.39 39.6244V52.5341C221.39 55.1688 222.806 57.6058 225.079 58.8902L239.8 67.3869L242.533 62.4799L229.986 52.3036Z" fill="#C2C2C2"/>
<path d="M229.195 52.5671L224.75 51.9085C224.75 51.9085 227.878 49.669 229.195 52.5671Z" fill="#B2B2B2"/>
<path d="M239.8 64.917C239.8 64.423 239.405 64.0608 238.944 64.0608C238.483 64.0608 238.087 64.456 238.087 64.917C238.087 65.3781 238.483 65.7733 238.944 65.7733C239.405 65.7733 239.8 65.3781 239.8 64.917Z" fill="#D2D2D2"/>
<path d="M246.353 18.0204L244.048 17.724C244.015 17.724 243.982 17.724 243.949 17.724L242.632 17.5593C242.599 17.5593 242.533 17.5593 242.5 17.5593L235.749 17.3288L236.177 17.8887L241.348 18.0533C241.15 18.2509 241.018 18.5144 240.985 18.8437L240.755 20.4904C240.656 21.2808 241.216 22.0382 242.006 22.137L243.818 22.4005C243.883 22.4005 243.916 22.4005 243.982 22.4005C244.246 22.4005 244.509 22.3017 244.74 22.137C245.003 21.9394 245.168 21.643 245.234 21.3137L245.53 19.2389C245.563 18.9754 245.497 18.6791 245.365 18.4485L246.255 18.5473H246.288C246.419 18.5473 246.518 18.4485 246.551 18.3168C246.617 18.1521 246.518 18.0204 246.353 18.0204ZM244.74 21.2149C244.707 21.4125 244.608 21.5772 244.476 21.676C244.312 21.8077 244.147 21.8406 243.949 21.8077L242.138 21.5442C241.611 21.4784 241.282 21.0173 241.348 20.4904L241.578 18.8437C241.644 18.3827 242.039 18.0204 242.5 18.0204C242.533 18.0204 242.599 18.0204 242.632 18.0204L244.443 18.2839C244.641 18.3168 244.806 18.4156 244.904 18.5473C245.036 18.712 245.069 18.8767 245.036 19.0742L244.74 21.2149Z" fill="black"/>
</svg>
